<?xml version="1.0" encoding="UTF-8" standalone="no"?>
<svg width="27px" height="14px" viewBox="0 0 27 14" version="1.1" xmlns="http://www.w3.org/2000/svg" xmlns:xlink="http://www.w3.org/1999/xlink">
    <!-- Generator: Sketch 44.1 (41455) - http://www.bohemiancoding.com/sketch -->
    <title>Arrow Right</title>
    <desc>Created with Sketch.</desc>
    <defs></defs>
    <g id="Page-2-Copy" stroke="none" stroke-width="1" fill="none" fill-rule="evenodd">
        <g id="5" stroke="#979797" transform="translate(-5.000000, -9.000000)" fill-rule="nonzero" fill="#2A2630">
            <path d="M10.0502525,22.8786797 L10.0502525,17.1923882 C10.0502525,16.6401034 9.60253728,16.1923882 9.05025253,16.1923882 C8.49796778,16.1923882 8.05025253,16.6401034 8.05025253,17.1923882 L8.05025253,25.1923882 C8.05025253,25.7446729 8.49796778,26.1923882 9.05025253,26.1923882 L17.0502525,26.1923882 C17.6025373,26.1923882 18.0502525,25.7446729 18.0502525,25.1923882 C18.0502525,24.6401034 17.6025373,24.1923882 17.0502525,24.1923882 L11.5649712,24.1923882 L27.29056,8.46679929 C27.6823729,8.07498641 27.6861402,7.44349949 27.2928932,7.05025253 C26.9023689,6.65972824 26.2666842,6.66224797 25.8763465,7.05258573 L10.0502525,22.8786797 Z" id="Rectangle-348" stroke="none" transform="translate(18.000000, 16.142136) rotate(-135.000000) translate(-18.000000, -16.142136) "></path>
        </g>
    </g>
</svg>